<svg xmlns="http://www.w3.org/2000/svg" version="1.1" xmlns:xlink="http://www.w3.org/1999/xlink" viewBox="0 0 200 200"><rect width="200" height="200" fill="url('#gradient')"></rect><defs><linearGradient id="gradient" gradientTransform="rotate(201 0.5 0.5)"><stop offset="0%" stop-color="#1195ee"></stop><stop offset="100%" stop-color="#cf22de"></stop></linearGradient></defs><g><g fill="#ffffff" transform="matrix(1.5637955116863766,0,0,1.5637955116863766,17.451967190437365,111.58213217598798)" stroke="#3b9b9b" stroke-width="0.45"><path d="M12.24-14.22L12.24-11.57L7.97-11.57L7.97 0L4.54 0L4.54-11.57L0.35-11.57L0.35-14.22L12.24-14.22ZM17.00-10.57L17.00 0L13.70 0L13.70-10.57L17.00-10.57ZM13.51-13.29L13.51-13.29Q13.51-13.99 14.01-14.44Q14.52-14.89 15.33-14.89Q16.14-14.89 16.65-14.44Q17.16-13.99 17.16-13.29Q17.16-12.59 16.65-12.14Q16.14-11.69 15.33-11.69Q14.52-11.69 14.01-12.14Q13.51-12.59 13.51-13.29ZM19.05-10.57L22.14-10.57L22.25-9.33Q23.37-10.76 25.26-10.76L25.26-10.76Q27.27-10.76 27.97-9.17L27.97-9.17Q29.04-10.76 31.07-10.76L31.07-10.76Q34.29-10.76 34.38-6.88L34.38-6.88L34.38 0L31.07 0L31.07-6.67Q31.07-7.48 30.80-7.85Q30.53-8.22 29.80-8.22L29.80-8.22Q28.83-8.22 28.35-7.35L28.35-7.35L28.36-7.22L28.36 0L25.06 0L25.06-6.65Q25.06-7.48 24.79-7.85Q24.53-8.22 23.79-8.22L23.79-8.22Q22.84-8.22 22.34-7.35L22.34-7.35L22.34 0L19.05 0L19.05-10.57ZM41.37 0.20L41.37 0.20Q38.94 0.20 37.43-1.25Q35.93-2.71 35.93-5.03L35.93-5.03L35.93-5.30Q35.93-6.92 36.53-8.16Q37.13-9.40 38.28-10.08Q39.43-10.76 41.02-10.76L41.02-10.76Q43.24-10.76 44.53-9.38Q45.82-8.00 45.82-5.53L45.82-5.53L45.82-4.25L39.28-4.25Q39.45-3.36 40.05-2.85Q40.64-2.34 41.59-2.34L41.59-2.34Q43.15-2.34 44.03-3.44L44.03-3.44L45.54-1.66Q44.92-0.81 43.79-0.31Q42.67 0.20 41.37 0.20ZM41.00-8.22L41.00-8.22Q39.55-8.22 39.28-6.31L39.28-6.31L42.60-6.31L42.60-6.56Q42.62-7.35 42.20-7.79Q41.78-8.22 41.00-8.22ZM54.63-3.78L54.63-3.78Q54.63-4.53 54.10-4.95Q53.56-5.37 52.23-5.82Q50.89-6.27 50.04-6.69L50.04-6.69Q47.28-8.05 47.28-10.42L47.28-10.42Q47.28-11.60 47.96-12.50Q48.65-13.41 49.91-13.91Q51.17-14.41 52.74-14.41L52.74-14.41Q54.28-14.41 55.49-13.87Q56.71-13.32 57.38-12.31Q58.06-11.30 58.06-10L58.06-10L54.64-10Q54.64-10.87 54.11-11.35Q53.57-11.83 52.67-11.83L52.67-11.83Q51.75-11.83 51.22-11.42Q50.68-11.02 50.68-10.39L50.68-10.39Q50.68-9.84 51.27-9.40Q51.86-8.96 53.33-8.48Q54.80-8.01 55.75-7.46L55.75-7.46Q58.06-6.13 58.06-3.80L58.06-3.80Q58.06-1.93 56.65-0.87Q55.24 0.20 52.79 0.20L52.79 0.20Q51.06 0.20 49.66-0.42Q48.26-1.04 47.55-2.12Q46.85-3.20 46.85-4.61L46.85-4.61L50.28-4.61Q50.28-3.47 50.87-2.92Q51.46-2.38 52.79-2.38L52.79-2.38Q53.64-2.38 54.14-2.75Q54.63-3.12 54.63-3.78ZM60.21-13.19L63.50-13.19L63.50-10.57L65.23-10.57L65.23-8.28L63.50-8.28L63.50-3.45Q63.50-2.85 63.71-2.62Q63.93-2.38 64.56-2.38L64.56-2.38Q65.05-2.38 65.38-2.44L65.38-2.44L65.38-0.09Q64.49 0.20 63.53 0.20L63.53 0.20Q61.83 0.20 61.02-0.61Q60.21-1.41 60.21-3.04L60.21-3.04L60.21-8.28L58.86-8.28L58.86-10.57L60.21-10.57L60.21-13.19ZM75.77 0L72.48 0Q72.30-0.32 72.17-0.95L72.17-0.95Q71.26 0.20 69.63 0.20L69.63 0.20Q68.13 0.20 67.09-0.71Q66.04-1.61 66.04-2.98L66.04-2.98Q66.04-4.70 67.31-5.58Q68.58-6.46 71.01-6.46L71.01-6.46L72.02-6.46L72.02-7.01Q72.02-8.47 70.76-8.47L70.76-8.47Q69.59-8.47 69.59-7.31L69.59-7.31L66.30-7.31Q66.30-8.85 67.60-9.80Q68.91-10.76 70.93-10.76Q72.95-10.76 74.12-9.78Q75.29-8.79 75.32-7.07L75.32-7.07L75.32-2.39Q75.34-0.94 75.77-0.17L75.77-0.17L75.77 0ZM70.42-2.15L70.42-2.15Q71.04-2.15 71.44-2.41Q71.85-2.68 72.02-3.01L72.02-3.01L72.02-4.70L71.06-4.70Q69.35-4.70 69.35-3.15L69.35-3.15Q69.35-2.71 69.65-2.43Q69.95-2.15 70.42-2.15ZM83.69 0L81.39-3.94L80.46-3.01L80.46 0L77.17 0L77.17-15.01L80.46-15.01L80.46-7.04L80.79-7.48L83.27-10.57L87.22-10.57L83.52-6.22L87.46 0L83.69 0ZM93.00 0.20L93.00 0.20Q90.57 0.20 89.06-1.25Q87.56-2.71 87.56-5.03L87.56-5.03L87.56-5.30Q87.56-6.92 88.16-8.16Q88.76-9.40 89.91-10.08Q91.06-10.76 92.65-10.76L92.65-10.76Q94.87-10.76 96.16-9.38Q97.45-8.00 97.45-5.53L97.45-5.53L97.45-4.25L90.91-4.25Q91.08-3.36 91.68-2.85Q92.28-2.34 93.22-2.34L93.22-2.34Q94.79-2.34 95.66-3.44L95.66-3.44L97.17-1.66Q96.55-0.81 95.42-0.31Q94.30 0.20 93.00 0.20ZM92.63-8.22L92.63-8.22Q91.18-8.22 90.91-6.31L90.91-6.31L94.23-6.31L94.23-6.56Q94.25-7.35 93.83-7.79Q93.41-8.22 92.63-8.22ZM105.22-10.64L105.17-7.59L104.08-7.67Q102.53-7.67 102.09-6.69L102.09-6.69L102.09 0L98.80 0L98.80-10.57L101.88-10.57L101.99-9.21Q102.82-10.76 104.31-10.76L104.31-10.76Q104.83-10.76 105.22-10.64L105.22-10.64Z"></path></g></g></svg>